<?xml version="1.0" encoding="UTF-8"?>
<svg id="Calque_1" data-name="Calque 1" xmlns="http://www.w3.org/2000/svg" viewBox="0 0 281.41 138.04">
  <defs>
    <style>
      .cls-1 {
        fill: #f9efe6;
      }

      .cls-2 {
        fill: #4f312f;
      }
    </style>
  </defs>
  <rect class="cls-2" width="281.41" height="138.04" rx="14.51" ry="14.51"/>
  <g>
    <g>
      <path class="cls-1" d="M50.15,54.01c-1.12-.47-2.63-.96-4.47-1.44-1.65-.44-2.99-.87-3.99-1.27-.96-.38-1.77-.93-2.42-1.64-.63-.69-.94-1.58-.94-2.71,0-1.27.55-2.33,1.69-3.23,1.15-.91,2.63-1.37,4.4-1.37,2.12,0,3.79.52,4.97,1.55,1.19,1.03,1.81,2.34,1.9,3.99l.02.36h2.93l-.02-.4c-.13-2.51-1.1-4.51-2.87-5.95-1.75-1.42-4.07-2.14-6.88-2.14-1.72,0-3.28.32-4.65.95-1.37.64-2.46,1.52-3.24,2.61-.78,1.11-1.18,2.33-1.18,3.62,0,1.76.45,3.19,1.34,4.25.87,1.04,1.95,1.83,3.19,2.35,1.19.5,2.79,1.02,4.74,1.54,1.58.41,2.85.8,3.77,1.15.88.33,1.62.81,2.2,1.43.56.59.84,1.34.84,2.28,0,1.38-.53,2.51-1.63,3.46-1.1.95-2.62,1.43-4.51,1.43-2.32,0-4.18-.48-5.5-1.43-1.32-.94-2.03-2.18-2.19-3.78l-.03-.34h-2.98l.04.41c.23,2.49,1.34,4.43,3.27,5.78,1.91,1.33,4.39,2,7.39,2,1.69,0,3.24-.32,4.6-.95,1.38-.64,2.47-1.54,3.24-2.69.78-1.15,1.18-2.46,1.18-3.88,0-1.57-.42-2.84-1.25-3.8-.81-.93-1.8-1.64-2.96-2.13Z"/>
      <path class="cls-1" d="M64.21,33.44h-2.93v6.66h-3.96v2.64h3.96v16.96c0,2.6.58,4.5,1.73,5.65,1.15,1.15,2.93,1.73,5.31,1.73h3.66v-2.69h-3.32c-1.69,0-2.87-.33-3.5-.97-.63-.65-.95-1.9-.95-3.72v-16.96h7.77v-2.64h-7.77v-6.66Z"/>
      <path class="cls-1" d="M96.97,54.53c0,3.42-.82,6.04-2.43,7.76-1.61,1.71-3.8,2.58-6.51,2.58s-4.65-.8-6.15-2.37c-1.5-1.58-2.26-3.9-2.26-6.91v-15.49h-2.88v15.64c0,3.85,1.04,6.81,3.08,8.79,2.04,1.98,4.71,2.98,7.92,2.98,2.28,0,4.34-.55,6.11-1.62,1.31-.79,2.35-1.86,3.12-3.19v4.38h2.93v-26.98h-2.93v14.43Z"/>
      <path class="cls-1" d="M129.46,45.64c-.85-1.5-2.04-2.78-3.56-3.81-2.02-1.37-4.43-2.07-7.17-2.07-2.5,0-4.76.57-6.73,1.69-1.97,1.13-3.53,2.75-4.64,4.83-1.1,2.07-1.66,4.52-1.66,7.28s.56,5.21,1.66,7.3c1.11,2.1,2.66,3.74,4.63,4.88,1.96,1.14,4.23,1.72,6.73,1.72,2.84,0,5.28-.71,7.27-2.12,1.48-1.05,2.64-2.33,3.46-3.84v5.57h2.93V30.59h-2.93v15.06ZM119.03,64.78c-2.02,0-3.83-.45-5.39-1.35-1.55-.89-2.78-2.19-3.64-3.85-.87-1.67-1.31-3.7-1.31-6.01s.44-4.33,1.31-6.01c.86-1.66,2.08-2.95,3.62-3.83,1.54-.88,3.37-1.33,5.41-1.33s3.74.46,5.32,1.37c1.57.91,2.83,2.23,3.74,3.91.92,1.69,1.38,3.67,1.38,5.88s-.46,4.24-1.36,5.93c-.9,1.68-2.15,3-3.74,3.91-1.59.91-3.39,1.37-5.34,1.37Z"/>
      <path class="cls-1" d="M142.61,31.13c-.85-.85-2.29-.85-3.14,0-.43.43-.64.97-.64,1.62,0,.68.22,1.24.65,1.65.42.41.95.61,1.56.61s1.14-.21,1.56-.61c.43-.41.65-.97.65-1.65,0-.65-.22-1.19-.64-1.62Z"/>
      <rect class="cls-1" x="139.56" y="40.1" width="2.93" height="26.98"/>
    </g>
    <path class="cls-1" d="M162.35,67.98c-.97,0-1.96-.24-2.87-.75-1.49-.84-2.54-2.3-2.89-3.95-1.59.57-3.38.44-4.87-.4-1.37-.77-2.36-2.03-2.79-3.54-.43-1.51-.24-3.1.53-4.47.31-.55.7-1.04,1.16-1.46-2.01-1.63-2.78-4.42-1.75-6.86.66-1.55,1.94-2.75,3.52-3.29,1.28-.44,2.66-.42,3.91.03.12-.63.34-1.23.65-1.79,1.59-2.83,5.18-3.84,8.01-2.26,1.49.84,2.54,2.3,2.89,3.95,1.59-.57,3.38-.44,4.87.4,2.83,1.59,3.85,5.18,2.26,8.02-.32.56-.72,1.06-1.19,1.49,2.22,1.79,2.88,4.94,1.46,7.47,0,0,0,0,0,0-1.43,2.54-4.47,3.61-7.12,2.66-.12.61-.34,1.2-.64,1.74-1.08,1.92-3.08,3.01-5.14,3.01ZM157.18,60.4c.31,0,.61.08.89.24.56.32.91.9.93,1.55.03,1.19.67,2.25,1.71,2.83,1.62.91,3.66.33,4.57-1.28.27-.49.42-1.02.43-1.57.01-.65.36-1.23.92-1.55.57-.33,1.25-.33,1.83-.01,1.64.92,3.68.34,4.59-1.27h0c.9-1.61.33-3.66-1.29-4.57-.6-.33-.98-.93-.99-1.59-.02-.66.3-1.26.86-1.61.48-.3.87-.71,1.15-1.2.9-1.61.33-3.66-1.29-4.57-1.04-.58-2.27-.58-3.31.02-.57.32-1.24.33-1.81.01-.56-.32-.91-.89-.93-1.54-.04-1.19-.68-2.25-1.72-2.83-1.62-.91-3.66-.33-4.57,1.29-.28.49-.42,1.04-.43,1.6,0,.66-.35,1.25-.92,1.57-.57.32-1.27.33-1.84,0-.86-.48-1.86-.57-2.76-.27-.91.31-1.63.98-2.01,1.88-.66,1.55.04,3.43,1.58,4.29.02.01.04.03.07.04.5.27.84.84.85,1.47.01.63-.32,1.23-.86,1.56-.49.3-.89.72-1.17,1.22-.44.78-.55,1.69-.3,2.55.24.86.81,1.58,1.59,2.02,1.04.58,2.28.58,3.31-.02.29-.16.6-.24.91-.24ZM168.24,62.22h0s0,0,0,0ZM174.15,59.95h0,0ZM172.95,52.52h.01s0,0-.01,0ZM157.16,43.68h0s0,0,0,0Z"/>
    <g>
      <path class="cls-1" d="M75.16,94.33c0,2.87,1.83,2.68,1.83,4.61,0,1.09-.69,1.54-2.33,1.54h-6.19c-1.63,0-2.28-.45-2.28-1.54,0-1.98,1.83-1.78,1.83-4.71v-10.8c0-2.38-.4-3.57-1.49-3.57-2.23,0-3.22,5.8-3.22,10.31v4.16c0,2.87,1.83,2.68,1.83,4.61,0,1.09-.69,1.54-2.33,1.54h-6.19c-1.64,0-2.28-.45-2.28-1.54,0-1.98,1.83-1.78,1.83-4.71v-12.88c0-2.87-1.83-2.68-1.83-4.61,0-1.54,3.07-2.53,6.05-2.53,1.63,0,2.53.64,2.68,2.63l.25,2.92c1.24-3.17,2.83-5.55,5.95-5.55,3.91,0,5.9,3.67,5.9,8.18v11.94Z"/>
      <path class="cls-1" d="M77.58,87.59c0-8.52,5.95-13.38,13.18-13.38s13.18,4.86,13.18,13.38-5.95,13.38-13.18,13.38-13.18-4.86-13.18-13.38ZM96.51,91.56c0-5.8-1.29-14.82-7.04-14.82-2.38,0-4.46,2.08-4.46,6.89,0,5.8,1.29,14.82,7.04,14.82,2.38,0,4.46-2.08,4.46-6.89Z"/>
      <path class="cls-1" d="M125.35,93.84c0,2.87,1.83,2.68,1.83,4.61,0,1.54-3.07,2.53-6.05,2.53-1.64,0-2.53-.64-2.68-2.63l-.25-2.92c-1.24,3.17-3.12,5.55-6.44,5.55-3.91,0-5.4-3.47-5.4-7.68v-11.94c0-2.87-1.83-2.68-1.83-4.61,0-1.54,3.07-2.53,6.29-2.53,1.63,0,2.68.64,2.68,2.63v14.92c0,2.38.4,3.57,1.49,3.57,2.23,0,3.22-5.8,3.22-10.31v-3.67c0-2.87-1.83-2.68-1.83-4.61,0-1.54,3.07-2.53,6.29-2.53,1.64,0,2.68.64,2.68,2.63v17Z"/>
      <path class="cls-1" d="M149.92,71.89c0,2.33-3.32,3.67-6.79,3.82,3.87,1.34,5.8,4.9,5.8,9.66,0,6.79-4.21,10.65-10.55,10.65-3.57,0-5.1.94-5.1,1.98,0,.55.4.89,1.54.89,3.12,0,6.54-2.23,9.51-2.18,2.63.05,5.6,1.44,5.6,5.6,0,4.81-3.12,7.58-6.24,7.58-2.18,0-3.91-1.59-3.91-3.02,0-1.34,1.09-1.78,2.43-2.08,3.62-.74,5.55-1.04,5.55-2.03,0-.6-.69-.84-1.83-.84-3.27,0-7.83,2.53-12.14,2.53-3.22,0-5.75-1.29-5.75-4.31s2.58-4.86,5.85-5.55c-3.62-1.14-5.85-4.76-5.85-9.96,0-6.64,4.06-10.41,10.21-10.41s6.59-5.3,9.12-5.3c1.59,0,2.58,1.88,2.58,2.97ZM141.6,88.19c0-4.11-.69-11.45-3.82-11.45-1.59,0-2.43,1.98-2.43,5.3,0,4.11.69,11.45,3.82,11.45,1.59,0,2.43-1.98,2.43-5.3Z"/>
      <path class="cls-1" d="M167.91,82.39v11.45c0,1.59.4,2.43,1.04,2.43.89,0,.55-1.59,1.49-1.59.59,0,.74.69.74,1.29,0,2.33-1.39,4.86-4.96,4.86-2.08,0-3.87-1.09-4.51-4.11-.94,2.78-2.48,4.26-5.06,4.26-3.82,0-6.49-2.82-6.49-6.64,0-4.46,3.17-6.94,7.98-8.03l2.63-.59v-2.53c0-4.36-.64-6.44-1.93-6.44-1.73,0-1.88,2.08-2.18,5.7-.1,1.34-.64,2.43-2.43,2.43-1.68,0-3.57-1.73-3.57-3.91,0-3.12,3.77-6.74,8.72-6.74s8.52,2.58,8.52,8.18ZM157.11,92.05c0,1.78.79,3.91,2.33,3.91.99,0,1.34-.79,1.34-2.82v-4.61l-1.78.4c-1.34.3-1.88,1.39-1.88,3.12Z"/>
      <path class="cls-1" d="M179.85,68.96v5.75h2.97c.99,0,1.54.35,1.54,1.19v.35c0,.84-.55,1.19-1.54,1.19h-2.97v14.17c0,3.32.69,4.66,1.83,4.66,1.59,0,1.29-1.59,2.43-1.59.59,0,.74.69.74,1.29,0,2.33-2.33,4.86-6.1,4.86-3.42,0-6.05-2.28-6.05-8.13v-15.26h-1.73c-.99,0-1.54-.35-1.54-1.19v-.35c0-.84.55-1.19,1.54-1.19,5.85,0,4.66-7.78,7.48-7.78.79,0,1.39.59,1.39,2.03Z"/>
      <path class="cls-1" d="M194.81,76.59v17.74c0,2.87,1.83,2.68,1.83,4.61,0,1.09-.69,1.54-2.33,1.54h-6.19c-1.64,0-2.28-.45-2.28-1.54,0-1.98,1.83-1.78,1.83-4.71v-12.88c0-2.87-1.83-2.68-1.83-4.61,0-1.54,3.07-2.53,6.29-2.53,1.63,0,2.68.59,2.68,2.38ZM194.81,67.77c0,2.28-1.63,3.52-3.82,3.52s-3.82-1.24-3.82-3.52,1.64-3.47,3.82-3.47,3.82,1.24,3.82,3.47Z"/>
      <path class="cls-1" d="M218.3,94.33c0,2.87,1.83,2.68,1.83,4.61,0,1.09-.69,1.54-2.33,1.54h-6.19c-1.63,0-2.28-.45-2.28-1.54,0-1.98,1.83-1.78,1.83-4.71v-10.8c0-2.38-.4-3.57-1.49-3.57-2.23,0-3.22,5.8-3.22,10.31v4.16c0,2.87,1.83,2.68,1.83,4.61,0,1.09-.69,1.54-2.33,1.54h-6.19c-1.64,0-2.28-.45-2.28-1.54,0-1.98,1.83-1.78,1.83-4.71v-12.88c0-2.87-1.83-2.68-1.83-4.61,0-1.54,3.07-2.53,6.05-2.53,1.63,0,2.53.64,2.68,2.63l.25,2.92c1.24-3.17,2.83-5.55,5.95-5.55,3.91,0,5.9,3.67,5.9,8.18v11.94Z"/>
      <path class="cls-1" d="M236.14,95.72c5.5,0,5.85-5.2,7.58-5.2.55,0,.84.45.84,1.04,0,3.72-3.82,9.41-11.3,9.41s-12.54-5.2-12.54-13.33,5.2-13.43,12.79-13.43c6.05,0,10.55,3.67,10.55,10.31v.35c0,.84-.54,1.19-1.54,1.19h-14.27c.45,4.91,2.38,9.66,7.88,9.66ZM237.03,83.33c0-3.72-1.59-6.69-4.66-6.59-2.48.1-4.16,1.98-4.21,6.59h8.87Z"/>
    </g>
    <g>
      <path class="cls-1" d="M157.72,107.27c.16-.3.39-.54.68-.7.29-.17.62-.25.99-.25.48,0,.88.12,1.19.35.31.23.52.56.62.97h-.7c-.07-.24-.2-.43-.39-.56-.19-.14-.43-.21-.72-.21-.37,0-.67.13-.9.38-.23.26-.34.62-.34,1.08s.11.84.34,1.09c.23.26.53.39.9.39.29,0,.52-.07.71-.2.19-.13.32-.32.39-.57h.7c-.11.4-.31.72-.63.96s-.71.36-1.18.36c-.37,0-.7-.08-.99-.25-.29-.17-.51-.4-.68-.71s-.24-.66-.24-1.07.08-.76.24-1.06Z"/>
      <path class="cls-1" d="M163.91,106.49c.21-.12.47-.19.77-.19v.67h-.17c-.73,0-1.09.4-1.09,1.19v2.13h-.65v-3.91h.65v.64c.12-.22.28-.4.49-.52Z"/>
      <path class="cls-1" d="M169.7,108.58h-3.13c.02.39.16.69.4.9s.53.33.87.33c.28,0,.52-.07.7-.2.19-.13.32-.31.4-.53h.7c-.11.38-.31.68-.63.92s-.7.35-1.17.35c-.37,0-.7-.08-1-.25-.29-.17-.52-.4-.69-.71s-.25-.66-.25-1.07.08-.76.24-1.06.39-.54.68-.7c.29-.16.63-.25,1.01-.25s.7.08.99.24c.29.16.51.39.66.67.15.28.23.6.23.96,0,.12,0,.25-.02.39ZM168.89,107.41c-.11-.18-.26-.31-.45-.41s-.4-.14-.63-.14c-.33,0-.61.1-.84.31-.23.21-.36.5-.4.87h2.47c0-.25-.06-.46-.16-.64Z"/>
      <path class="cls-1" d="M171.29,107.27c.16-.3.38-.54.67-.7.28-.17.6-.25.95-.25s.64.07.89.22.44.33.56.56v-.71h.66v3.91h-.66v-.73c-.13.23-.32.42-.57.57-.26.15-.55.22-.89.22s-.66-.09-.94-.26-.5-.41-.66-.72-.24-.66-.24-1.06.08-.75.24-1.05ZM174.19,107.56c-.12-.22-.28-.39-.48-.5-.2-.12-.43-.18-.67-.18s-.46.06-.66.17-.36.28-.48.5-.18.48-.18.77.06.56.18.78.28.39.48.51c.2.12.42.18.66.18s.47-.06.67-.18c.2-.12.36-.29.48-.51s.18-.48.18-.77-.06-.55-.18-.77Z"/>
      <path class="cls-1" d="M177.63,106.91v2.31c0,.19.04.33.12.4s.22.12.42.12h.48v.55h-.59c-.36,0-.63-.08-.81-.25-.18-.17-.27-.44-.27-.82v-2.31h-.51v-.54h.51v-.99h.65v.99h1.02v.54h-1.02Z"/>
      <path class="cls-1" d="M180.17,105.61c-.09-.09-.13-.19-.13-.31s.04-.23.13-.31.19-.13.31-.13.22.04.3.13c.08.09.13.19.13.31s-.04.23-.13.31c-.08.09-.18.13-.3.13s-.23-.04-.31-.13ZM180.8,106.38v3.91h-.65v-3.91h.65Z"/>
      <path class="cls-1" d="M184.08,109.69l1.21-3.31h.69l-1.54,3.91h-.76l-1.54-3.91h.7l1.22,3.31Z"/>
      <path class="cls-1" d="M190.89,108.58h-3.13c.02.39.16.69.4.9s.53.33.87.33c.28,0,.52-.07.7-.2.19-.13.32-.31.4-.53h.7c-.11.38-.31.68-.63.92s-.7.35-1.17.35c-.37,0-.7-.08-1-.25-.29-.17-.52-.4-.69-.71s-.25-.66-.25-1.07.08-.76.24-1.06.39-.54.68-.7c.29-.16.63-.25,1.01-.25s.7.08.99.24c.29.16.51.39.66.67.15.28.23.6.23.96,0,.12,0,.25-.02.39ZM190.07,107.41c-.11-.18-.26-.31-.45-.41s-.4-.14-.63-.14c-.33,0-.61.1-.84.31-.23.21-.36.5-.4.87h2.47c0-.25-.06-.46-.16-.64Z"/>
      <path class="cls-1" d="M195.68,110.2c-.24-.1-.43-.25-.56-.43-.14-.18-.21-.39-.23-.63h.67c.02.2.11.35.28.48.16.12.38.19.65.19.25,0,.44-.06.59-.16.14-.11.21-.25.21-.41s-.08-.3-.23-.38c-.15-.08-.39-.17-.71-.25-.29-.08-.53-.15-.71-.23-.18-.08-.34-.2-.47-.35s-.2-.36-.2-.61c0-.2.06-.38.18-.55.12-.17.29-.3.51-.4s.47-.15.75-.15c.43,0,.78.11,1.05.33.27.22.41.52.43.9h-.65c-.01-.2-.1-.37-.25-.49-.15-.12-.35-.19-.6-.19-.23,0-.42.05-.56.15-.14.1-.21.23-.21.39,0,.13.04.23.13.32s.19.15.31.2.3.11.53.17c.28.08.51.15.69.22.18.07.33.19.45.33s.19.34.2.58c0,.21-.06.41-.18.58s-.29.31-.5.4-.47.15-.75.15c-.3,0-.57-.05-.81-.15Z"/>
      <path class="cls-1" d="M200.34,106.91v2.31c0,.19.04.33.12.4s.22.12.42.12h.48v.55h-.59c-.36,0-.63-.08-.81-.25-.18-.17-.27-.44-.27-.82v-2.31h-.51v-.54h.51v-.99h.65v.99h1.02v.54h-1.02Z"/>
      <path class="cls-1" d="M206.33,106.38v3.91h-.65v-.58c-.12.2-.3.36-.52.47-.22.11-.47.17-.73.17-.3,0-.58-.06-.82-.19s-.43-.32-.57-.57c-.14-.25-.21-.56-.21-.92v-2.29h.64v2.21c0,.39.1.68.29.89s.46.31.8.31.62-.11.82-.32c.2-.21.3-.53.3-.94v-2.15h.65Z"/>
      <path class="cls-1" d="M208.14,107.27c.16-.3.38-.54.67-.7.28-.17.6-.25.95-.25.3,0,.59.07.85.21.26.14.46.33.6.55v-2.07h.66v5.28h-.66v-.74c-.13.23-.32.43-.57.58-.25.15-.55.22-.89.22s-.66-.09-.95-.26c-.28-.17-.51-.41-.67-.72s-.24-.66-.24-1.06.08-.75.24-1.05ZM211.03,107.56c-.12-.22-.28-.39-.48-.5-.2-.12-.43-.18-.67-.18s-.46.06-.66.17-.36.28-.48.5-.18.48-.18.77.06.56.18.78.28.39.48.51c.2.12.42.18.66.18s.47-.06.67-.18c.2-.12.36-.29.48-.51s.18-.48.18-.77-.06-.55-.18-.77Z"/>
      <path class="cls-1" d="M213.7,105.61c-.09-.09-.13-.19-.13-.31s.04-.23.13-.31.19-.13.31-.13.22.04.3.13c.08.09.13.19.13.31s-.04.23-.13.31c-.08.09-.18.13-.3.13s-.23-.04-.31-.13ZM214.33,106.38v3.91h-.65v-3.91h.65Z"/>
      <path class="cls-1" d="M216.87,110.11c-.3-.17-.53-.4-.7-.71-.17-.31-.25-.66-.25-1.07s.09-.75.26-1.06c.17-.31.41-.54.71-.71.3-.16.64-.25,1.01-.25s.71.08,1.01.25.54.4.71.7c.17.3.26.66.26,1.06s-.09.76-.27,1.07-.42.54-.72.71c-.3.17-.64.25-1.01.25s-.7-.08-1-.25ZM218.52,109.62c.2-.11.37-.27.5-.49.13-.22.19-.49.19-.8s-.06-.58-.19-.8c-.12-.22-.29-.38-.49-.49-.2-.11-.42-.16-.65-.16s-.46.05-.65.16c-.2.11-.36.27-.48.49-.12.22-.18.49-.18.8s.06.59.18.81c.12.22.27.38.47.49s.41.16.64.16.45-.06.66-.16Z"/>
    </g>
  </g>
</svg>