<?xml version="1.0" encoding="UTF-8"?>
<svg id="Calque_1" data-name="Calque 1" xmlns="http://www.w3.org/2000/svg" viewBox="0 0 25.29 25.29">
  <defs>
    <style>
      .cls-1 {
        fill: #5f2d6b;
      }

      .cls-2 {
        fill: #d5bbff;
      }
    </style>
  </defs>
  <circle class="cls-2" cx="12.64" cy="12.64" r="12.64"/>
  <path class="cls-1" d="M16.84,7.85h-8.39c-.99,0-1.8.81-1.8,1.8v6c0,.99.81,1.8,1.8,1.8h8.39c.99,0,1.8-.81,1.8-1.8v-6c0-.99-.81-1.8-1.8-1.8ZM8.45,9.05h8.39c.11,0,.21.03.3.08-.02.01-.04.02-.06.04l-3.72,2.79c-.42.32-1.02.32-1.44,0l-3.72-2.79s-.04-.03-.06-.04c.09-.05.19-.08.3-.08ZM17.44,15.64c0,.33-.27.6-.6.6h-8.39c-.33,0-.6-.27-.6-.6v-5.25l3.36,2.52c.42.31.92.48,1.44.48s1.02-.17,1.44-.48l3.36-2.52v5.25Z"/>
</svg>