<?xml version="1.0" encoding="UTF-8"?>
<svg id="Calque_1" data-name="Calque 1" xmlns="http://www.w3.org/2000/svg" viewBox="0 0 25.29 25.29">
  <defs>
    <style>
      .cls-1 {
        fill: #f9efe6;
      }

      .cls-2 {
        fill: #d36726;
      }
    </style>
  </defs>
  <circle class="cls-2" cx="12.64" cy="12.64" r="12.64"/>
  <g>
    <path class="cls-1" d="M14.97,18.64h-4.64c-2.03,0-3.67-1.65-3.67-3.67v-4.64c0-2.03,1.65-3.67,3.67-3.67h4.64c2.03,0,3.67,1.65,3.67,3.67v4.64c0,2.03-1.65,3.67-3.67,3.67ZM10.32,7.81c-1.39,0-2.51,1.13-2.51,2.51v4.64c0,1.39,1.13,2.51,2.51,2.51h4.64c1.39,0,2.51-1.13,2.51-2.51v-4.64c0-1.39-1.13-2.51-2.51-2.51h-4.64Z"/>
    <path class="cls-1" d="M12.64,15.55c-1.6,0-2.9-1.3-2.9-2.9s1.3-2.9,2.9-2.9,2.9,1.3,2.9,2.9c0,.77-.3,1.5-.85,2.05-.55.55-1.28.85-2.05.85ZM12.64,10.9c-.96,0-1.74.78-1.74,1.74s.78,1.74,1.74,1.74c.46,0,.9-.18,1.23-.51.33-.33.51-.77.51-1.23,0-.96-.78-1.74-1.74-1.74Z"/>
    <path class="cls-1" d="M14.97,9.55h0c0-.43.35-.77.77-.77h0c.43,0,.77.35.77.77h0c0,.43-.35.77-.77.77h0c-.43,0-.77-.35-.77-.77Z"/>
    <path class="cls-1" d="M15.74,10.32c-.43,0-.77-.35-.77-.77s.35-.77.77-.77.77.35.77.77-.35.77-.77.77ZM15.74,9.55s0,0,0,0h0Z"/>
  </g>
</svg>